{"asset":{"version":"2.0","generator":"babylon.js glTF exporter for 3dsmax 2017 v20210401.5"},"scene":0,"scenes":[{"nodes":[0]}],"nodes":[{"mesh":0,"translation":[0.0,-0.005945091,0.0264083836],"scale":[0.9608639,0.4347345,1.0],"name":"Building1"}],"meshes":[{"primitives":[{"attributes":{"POSITION":1,"NORMAL":2,"COLOR_0":3,"TEXCOORD_0":4},"indices":0}],"name":"Building1"}],"accessors":[{"bufferView":0,"componentType":5123,"count":1806,"type":"SCALAR","name":"accessorIndices"},{"bufferView":1,"componentType":5126,"count":1806,"max":[0.348185271,1.72524476,0.316330433],"min":[-0.348185271,-0.007022375,-0.2691472],"type":"VEC3","name":"accessorPositions"},{"bufferView":1,"byteOffset":21672,"componentType":5126,"count":1806,"type":"VEC3","name":"accessorNormals"},{"bufferView":2,"componentType":5126,"count":1806,"type":"VEC4","name":"accessorColors"},{"bufferView":3,"componentType":5126,"count":1806,"type":"VEC2","name":"accessorUVs"}],"bufferViews":[{"buffer":0,"byteLength":3612,"name":"bufferViewScalar"},{"buffer":0,"byteOffset":3612,"byteLength":43344,"byteStride":12,"name":"bufferViewFloatVec3"},{"buffer":0,"byteOffset":46956,"byteLength":28896,"byteStride":16,"name":"bufferViewFloatVec4"},{"buffer":0,"byteOffset":75852,"byteLength":14448,"byteStride":8,"name":"bufferViewFloatVec2"}],"buffers":[{"uri":"building1.bin","byteLength":90300}]}