{"asset":{"version":"2.0","generator":"babylon.js glTF exporter for 3dsmax 2017 v20210401.5"},"scene":0,"scenes":[{"nodes":[0]}],"nodes":[{"mesh":0,"translation":[0.0,-0.005945091,0.0264083836],"scale":[0.727616966,0.4347345,0.752248764],"name":"Building1"}],"meshes":[{"primitives":[{"attributes":{"POSITION":1,"NORMAL":2,"COLOR_0":3,"TEXCOORD_0":4},"indices":0,"material":0},{"attributes":{"POSITION":6,"NORMAL":7,"COLOR_0":8,"TEXCOORD_0":9},"indices":5,"material":1},{"attributes":{"POSITION":11,"NORMAL":12,"COLOR_0":13,"TEXCOORD_0":14},"indices":10,"material":2},{"attributes":{"POSITION":16,"NORMAL":17,"COLOR_0":18,"TEXCOORD_0":19},"indices":15,"material":3}],"name":"Building1"}],"accessors":[{"bufferView":0,"componentType":5123,"count":132,"type":"SCALAR","name":"accessorIndices"},{"bufferView":1,"componentType":5126,"count":132,"max":[0.312219024,1.62385345,0.2735916],"min":[-0.312219024,-0.00189012522,-0.226408377],"type":"VEC3","name":"accessorPositions"},{"bufferView":1,"byteOffset":1584,"componentType":5126,"count":132,"type":"VEC3","name":"accessorNormals"},{"bufferView":2,"componentType":5126,"count":132,"type":"VEC4","name":"accessorColors"},{"bufferView":3,"componentType":5126,"count":132,"type":"VEC2","name":"accessorUVs"},{"bufferView":0,"byteOffset":264,"componentType":5123,"count":1602,"type":"SCALAR","name":"accessorIndices"},{"bufferView":1,"byteOffset":3168,"componentType":5126,"count":1602,"max":[0.348185271,1.72524476,0.316330433],"min":[-0.348185271,-0.00289011,-0.2691472],"type":"VEC3","name":"accessorPositions"},{"bufferView":1,"byteOffset":22392,"componentType":5126,"count":1602,"type":"VEC3","name":"accessorNormals"},{"bufferView":2,"byteOffset":2112,"componentType":5126,"count":1602,"type":"VEC4","name":"accessorColors"},{"bufferView":3,"byteOffset":1056,"componentType":5126,"count":1602,"type":"VEC2","name":"accessorUVs"},{"bufferView":0,"byteOffset":3468,"componentType":5123,"count":12,"type":"SCALAR","name":"accessorIndices"},{"bufferView":1,"byteOffset":41616,"componentType":5126,"count":12,"max":[0.0449344628,1.46855593,0.2768593],"min":[-0.239478484,1.14177978,0.276859283],"type":"VEC3","name":"accessorPositions"},{"bufferView":1,"byteOffset":41760,"componentType":5126,"count":12,"type":"VEC3","name":"accessorNormals"},{"bufferView":2,"byteOffset":27744,"componentType":5126,"count":12,"type":"VEC4","name":"accessorColors"},{"bufferView":3,"byteOffset":13872,"componentType":5126,"count":12,"type":"VEC2","name":"accessorUVs"},{"bufferView":0,"byteOffset":3492,"componentType":5123,"count":24,"type":"SCALAR","name":"accessorIndices"},{"bufferView":1,"byteOffset":41904,"componentType":5126,"count":24,"max":[0.243050441,1.46855593,0.2768593],"min":[-0.239478484,0.6217878,0.276859254],"type":"VEC3","name":"accessorPositions"},{"bufferView":1,"byteOffset":42192,"componentType":5126,"count":24,"type":"VEC3","name":"accessorNormals"},{"bufferView":2,"byteOffset":27936,"componentType":5126,"count":24,"type":"VEC4","name":"accessorColors"},{"bufferView":3,"byteOffset":13968,"componentType":5126,"count":24,"type":"VEC2","name":"accessorUVs"}],"bufferViews":[{"buffer":0,"byteLength":3540,"name":"bufferViewScalar"},{"buffer":0,"byteOffset":3540,"byteLength":42480,"byteStride":12,"name":"bufferViewFloatVec3"},{"buffer":0,"byteOffset":46020,"byteLength":28320,"byteStride":16,"name":"bufferViewFloatVec4"},{"buffer":0,"byteOffset":74340,"byteLength":14160,"byteStride":8,"name":"bufferViewFloatVec2"}],"buffers":[{"uri":"building1.bin","byteLength":88500}],"materials":[{"pbrMetallicRoughness":{"baseColorFactor":[0.03137255,0.09019608,0.164705887,1.0],"metallicFactor":0.0,"roughnessFactor":0.450053632},"doubleSided":true,"name":"Material #36"},{"pbrMetallicRoughness":{"baseColorFactor":[0.0784313753,0.482352972,0.431372583,1.0],"metallicFactor":0.0,"roughnessFactor":0.450053632},"name":"Material #37"},{"pbrMetallicRoughness":{"baseColorFactor":[0.007843138,0.0156862754,0.0392156877,1.0],"metallicFactor":0.0,"roughnessFactor":0.450053632},"name":"Material #38"},{"pbrMetallicRoughness":{"baseColorFactor":[0.192156881,0.8705883,0.0588235334,1.0],"metallicFactor":0.0,"roughnessFactor":0.450053632},"name":"Material #39"}]}